<?xml version="1.0" encoding="iso-8859-1"?>
<!-- Uploaded to: SVG Repo, www.svgrepo.com, Generator: SVG Repo Mixer Tools -->
<svg height="800px" width="800px" version="1.1" id="Layer_1" xmlns="http://www.w3.org/2000/svg" xmlns:xlink="http://www.w3.org/1999/xlink" 
	 viewBox="0 0 512 512" xml:space="preserve">
<polyline style="fill:#547475;" points="306.087,495.861 306.087,380.669 205.913,380.669 205.913,495.861 "/>
<polyline style="opacity:0.15;fill:#231F20;enable-background:new    ;" points="223.722,495.861 223.722,380.669 205.913,380.669 
	205.913,495.861 "/>
<path style="fill:#698F92;" d="M512,365.858c0,12.661-10.266,22.925-22.925,22.925H22.925C10.264,388.784,0,378.52,0,365.858V23.482
	C0,10.821,10.264,0.557,22.925,0.557h466.15C501.734,0.557,512,10.821,512,23.482V365.858z"/>
<path style="opacity:0.15;fill:#231F20;enable-background:new    ;" d="M17.809,365.858V23.482
	c0-12.661,10.264-22.925,22.925-22.925H22.925C10.264,0.557,0,10.821,0,23.482v342.377c0,12.661,10.264,22.925,22.925,22.925h17.809
	C28.073,388.784,17.809,378.52,17.809,365.858z"/>
<path style="fill:#698F92;" d="M290.537,478.052h60.814c9.22,0,16.696,7.475,16.696,16.696s-7.475,16.696-16.696,16.696H159.906
	c-9.22,0-16.696-7.475-16.696-16.696s7.475-16.696,16.696-16.696H264.38"/>
<path style="fill:#53CAF9;" d="M474.73,338.579c0,7.376-5.98,13.357-13.357,13.357H50.627c-7.377,0-13.357-5.98-13.357-13.357
	V50.761c0-7.376,5.979-13.357,13.357-13.357h410.745c7.376,0,13.357,5.98,13.357,13.357v287.817H474.73z"/>
<path style="fill:#DBDDDD;" d="M50.627,351.935h410.745c7.376,0,13.357-5.98,13.357-13.357v-26.207H37.27v26.207
	C37.27,345.956,43.251,351.935,50.627,351.935z"/>
<path style="fill:#F74848;" d="M37.27,338.579c0,7.376,5.979,13.357,13.357,13.357h30.658v-39.563H37.27V338.579z"/>
<g>
	<path style="fill:#A8E2EF;" d="M439.475,183.074H253.703c-4.61,0-8.348-3.738-8.348-8.348c0-4.61,3.738-8.348,8.348-8.348h185.771
		c4.611,0,8.348,3.738,8.348,8.348C447.823,179.337,444.085,183.074,439.475,183.074z"/>
	<path style="fill:#A8E2EF;" d="M439.475,218.568H253.703c-4.61,0-8.348-3.738-8.348-8.348s3.738-8.348,8.348-8.348h185.771
		c4.611,0,8.348,3.738,8.348,8.348C447.823,214.831,444.085,218.568,439.475,218.568z"/>
	<path style="fill:#A8E2EF;" d="M439.475,254.062H253.703c-4.61,0-8.348-3.738-8.348-8.348s3.738-8.348,8.348-8.348h185.771
		c4.611,0,8.348,3.738,8.348,8.348C447.823,250.325,444.085,254.062,439.475,254.062z"/>
	<path style="fill:#A8E2EF;" d="M439.475,289.555H253.703c-4.61,0-8.348-3.738-8.348-8.348s3.738-8.348,8.348-8.348h185.771
		c4.611,0,8.348,3.738,8.348,8.348C447.823,285.817,444.085,289.555,439.475,289.555z"/>
	<path style="fill:#A8E2EF;" d="M443.255,131.318c0,7.376-5.98,13.357-13.357,13.357H82.1c-7.376,0-13.357-5.98-13.357-13.357
		V80.489c0-7.376,5.98-13.357,13.357-13.357H429.9c7.376,0,13.357,5.98,13.357,13.357v50.829H443.255z"/>
</g>
<path style="fill:#EFD760;" d="M222.27,267.851c0,7.376-5.98,13.357-13.357,13.357H82.1c-7.376,0-13.357-5.98-13.357-13.357v-79.768
	c0-7.376,5.98-13.357,13.357-13.357h126.815c7.376,0,13.357,5.98,13.357,13.357v79.768H222.27z"/>
<path style="opacity:0.15;fill:#231F20;enable-background:new    ;" d="M55.079,338.579V50.761c0-7.376,5.979-13.357,13.357-13.357
	H50.627c-7.377,0-13.357,5.98-13.357,13.357v287.817c0,7.376,5.979,13.357,13.357,13.357h17.809
	C61.059,351.935,55.079,345.956,55.079,338.579z"/>
</svg>